<svg id="Capa_1" data-name="Capa 1" xmlns="http://www.w3.org/2000/svg" viewBox="0 0 115 106.98"><defs><style>.cls-1{fill:#e9e9e9;}.cls-2{fill:#ff5a9d;}.cls-3{fill:#0068ff;}</style></defs><path class="cls-1" d="M103.34,76.42V44A30.64,30.64,0,0,0,83.79,15.49a11.67,11.67,0,0,1-11,7.84v9A11.66,11.66,0,0,1,84.44,44V63a11.6,11.6,0,0,1-1.63,5.94A12.16,12.16,0,0,1,82,70.19a11.52,11.52,0,0,1-.92,1A11.66,11.66,0,0,1,61.12,63V44a30.57,30.57,0,0,0-19.55-28.5,11.65,11.65,0,0,1-22,0l-.66.25V11.66h0V0H0V63A30.63,30.63,0,0,0,30.56,93.55V74.66A11.67,11.67,0,0,1,18.89,63h0V44a11.67,11.67,0,0,1,23.33,0V63h0A30.53,30.53,0,0,0,87.5,89.75,30.55,30.55,0,0,0,115,107V88.08A11.66,11.66,0,0,1,103.34,76.42Z"/><path class="cls-2" d="M30.56,32.32A11.67,11.67,0,0,0,18.89,44V63h0a11.68,11.68,0,0,0,9.32,11.42,11.35,11.35,0,0,0,2.35.24A11.66,11.66,0,0,0,42.22,63h0V44A11.66,11.66,0,0,0,30.56,32.32Z"/><path class="cls-2" d="M30.56,0A11.67,11.67,0,0,0,18.89,11.66h0a11.54,11.54,0,0,0,.66,3.83A11.66,11.66,0,1,0,30.56,0Z"/><path class="cls-3" d="M84.44,44a11.66,11.66,0,1,0-23.32,0V63A11.66,11.66,0,0,0,81,71.24a11.52,11.52,0,0,0,.92-1,12.16,12.16,0,0,0,.86-1.26A11.59,11.59,0,0,0,84.44,63h0Z"/><path class="cls-3" d="M72.78,23.33a11.67,11.67,0,0,0,11-7.84,11.84,11.84,0,0,0,.65-3.83A11.66,11.66,0,1,0,72.78,23.33Z"/></svg>